# xmcd CD database file
#
# Track frame offsets:
#	150
#	15464
#	31847
#	44498
#	58182
#	69018
#	80594
#	98581
#	113482
#	129565
#	144141
#	154379
#	172149
#	183450
#	195374
#	203970
#	215028
#	227523
#	239217
#	259595
#	273596
#	285122
#	300147
#	318243
#
# Disc length: 4430 seconds
#
# Revision: 0
# Processed by: cddbd v1.4PL0 Copyright (c) Steve Scherf et al.
# Submitted via: CDex 1.51
#
DISCID=46114c18
DTITLE=Various Artist - Country balady
DYEAR=1999
DGENRE=Country
TTITLE0=Greenhorns - Cervena reka
TTITLE1=Greenhorns - Pres plane
TTITLE2=Rattlesnake, Tucny and Tucnaci - Velika plan
TTITLE3=Ladislav Vodicka - Tom Dooley
TTITLE4=Greenhorns - Jsem vandrak a karbanik
TTITLE5=Greenhorns - Blue Brink
TTITLE6=Waldemar Matuska - Ruze z Texasu
TTITLE7=Pacifik - Mexican
TTITLE8=Greenhorns - Bobuv hrob
TTITLE9=Rohaci - Chlap, co tady chybi
TTITLE10=Wabi Danek - Posledni vagon
TTITLE11=Rangers - Otec a syn
TTITLE12=Greenhorns - Umirajici pastevec
TTITLE13=Greenhorns - Cizinec
TTITLE14=Rangers - Oh Shenandoah
TTITLE15=Spiritual kvintet - Kovbojuv narek
TTITLE16=Rattlesnake, Tucny and Tucnaci - Ukolebavka z Tennessee
TTITLE17=Pavel Bobek - Vis, kdo ti smi z tvych vlasku copy splest ?
TTITLE18=Spiritual Kvintet - Uz se nechci vdat
TTITLE19=Greenhorns - Zatoka
TTITLE20=Greenhorns - Rok 1849
TTITLE21=Tucny and Tucnaci - Jak to doopravdy bylo ...
TTITLE22=Miroslav Cerny - Sto let
TTITLE23=Waldemar Matuska - John Brown
EXTD=YEAR: 1999
EXTT0=
EXTT1=
EXTT2=
EXTT3=
EXTT4=
EXTT5=
EXTT6=
EXTT7=
EXTT8=
EXTT9=
EXTT10=
EXTT11=
EXTT12=
EXTT13=
EXTT14=
EXTT15=
EXTT16=
EXTT17=
EXTT18=
EXTT19=
EXTT20=
EXTT21=
EXTT22=
EXTT23=
PLAYORDER=
